<svg width="40" height="40" viewBox="0 0 40 40" fill="none" xmlns="http://www.w3.org/2000/svg">
  <!-- Background Circle -->
  <circle cx="20" cy="20" r="20" fill="url(#gradient)" />
  
  <!-- AI Icon -->
  <path d="M12 16L20 8L28 16V24C28 25.1046 27.1046 26 26 26H14C12.8954 26 12 25.1046 12 24V16Z" fill="white" fill-opacity="0.9"/>
  <circle cx="16" cy="18" r="1.5" fill="url(#gradient)"/>
  <circle cx="24" cy="18" r="1.5" fill="url(#gradient)"/>
  <path d="M16 22C16 22 18 24 20 24C22 24 24 22 24 22" stroke="url(#gradient)" stroke-width="1.5" stroke-linecap="round"/>
  
  <!-- Neural Network Pattern -->
  <g opacity="0.3">
    <circle cx="8" cy="12" r="1" fill="white"/>
    <circle cx="32" cy="12" r="1" fill="white"/>
    <circle cx="8" cy="28" r="1" fill="white"/>
    <circle cx="32" cy="28" r="1" fill="white"/>
    <line x1="8" y1="12" x2="12" y2="16" stroke="white" stroke-width="0.5"/>
    <line x1="32" y1="12" x2="28" y2="16" stroke="white" stroke-width="0.5"/>
    <line x1="8" y1="28" x2="12" y2="24" stroke="white" stroke-width="0.5"/>
    <line x1="32" y1="28" x2="28" y2="24" stroke="white" stroke-width="0.5"/>
  </g>
  
  <defs>
    <linearGradient id="gradient" x1="0%" y1="0%" x2="100%" y2="100%">
      <stop offset="0%" style="stop-color:#8B5CF6;stop-opacity:1" />
      <stop offset="50%" style="stop-color:#3B82F6;stop-opacity:1" />
      <stop offset="100%" style="stop-color:#06B6D4;stop-opacity:1" />
    </linearGradient>
  </defs>
</svg>